<svg version="1.2" xmlns="http://www.w3.org/2000/svg" viewBox="0 0 545 612" width="545" height="612">
	<title>food3-ai</title>
	<defs>
		<clipPath clipPathUnits="userSpaceOnUse" id="cp1">
			<path d="m375.32 505.65l20.2 66.26c1.82 4.69 2.98 9.61 3.44 14.63l0.75 7.98-7.2 3.55c-14.76 7.29-31 11.09-47.46 11.09-16.46 0-32.71-3.8-47.47-11.09l-7.2-3.55 0.59-6.25q-3.31-16.62-6.77-33.2c-0.96-4.61-1.92-9.24-2.95-13.84-2.93 0.4-5.88 0.63-8.76 0.63-2.87 0-5.82-0.23-8.75-0.63-1.03 4.6-1.99 9.23-2.95 13.84q-3.46 16.58-6.77 33.2l0.59 6.25-7.2 3.55c-14.76 7.29-31.01 11.09-47.47 11.09-16.46 0-32.7-3.8-47.46-11.09l-7.2-3.55 0.75-7.98c0.46-5.02 1.62-9.94 3.44-14.63l20.2-66.26-11.85-5.95-17.03 20.86-10.57-26.2-23.67 1.42 12.33-27.62c7.06-31.01 19.4-64.67 36.05-92.54q-9.23-6.18-17.67-13.4c-20.09-17.21-36.27-38.64-46.19-63.13-10.51 3.11-21.7 3.58-32.5 1.33-15.63-3.27-29.51-11.99-39.24-24.66-9.71-12.65-14.54-28.33-13.65-44.25 0.89-15.94 7.43-30.96 18.51-42.47 11.07-11.51 25.83-18.62 41.73-20.12 10.92-1.03 22.01 0.69 32.09 4.93 9.87-18.43 23.36-34.73 39.25-48.34 37.39-32.03 86.29-48.12 135.23-48.12 48.95 0 97.85 16.09 135.24 48.12 15.89 13.61 29.38 29.91 39.25 48.34 10.08-4.24 21.17-5.96 32.09-4.93 15.9 1.5 30.66 8.61 41.73 20.12 11.08 11.51 17.62 26.53 18.51 42.47 0.89 15.92-3.94 31.6-13.66 44.25-9.72 12.67-23.6 21.39-39.23 24.66-10.8 2.25-21.99 1.78-32.5-1.33-9.92 24.49-26.1 45.92-46.19 63.13q-8.44 7.22-17.67 13.4c16.64 27.87 28.99 61.53 36.05 92.54l12.33 27.62-23.67-1.42-10.57 26.2-17.03-20.86z"/>
		</clipPath>
		<linearGradient id="g1" x2="1" gradientUnits="userSpaceOnUse" gradientTransform="matrix(161.376,-620.799,623.297,162.026,-107.912,524.921)">
			<stop offset="0" stop-color="#6a00b8"/>
			<stop offset="1" stop-color="#16ea9e"/>
		</linearGradient>
		<clipPath clipPathUnits="userSpaceOnUse" id="cp2">
			<path d="m316.97 410.76c3.02 0 5.46 2.44 5.46 5.46 0 3.02-2.44 5.46-5.46 5.46-3.02 0-5.46-2.44-5.46-5.46 0-3.02 2.44-5.46 5.46-5.46z"/>
		</clipPath>
		<linearGradient id="g2" x2="1" gradientUnits="userSpaceOnUse" gradientTransform="matrix(161.377,-620.801,620.801,161.377,257.159,619.822)">
			<stop offset="0" stop-color="#6a00b8"/>
			<stop offset="1" stop-color="#16ea9e"/>
		</linearGradient>
		<clipPath clipPathUnits="userSpaceOnUse" id="cp3">
			<path d="m228.02 410.76c3.02 0 5.46 2.44 5.46 5.46 0 3.02-2.44 5.46-5.46 5.46-3.02 0-5.46-2.44-5.46-5.46 0-3.02 2.44-5.46 5.46-5.46z"/>
		</clipPath>
		<linearGradient id="g3" x2="1" gradientUnits="userSpaceOnUse" gradientTransform="matrix(161.377,-620.8,620.817,161.381,173.842,598.163)">
			<stop offset="0" stop-color="#6a00b8"/>
			<stop offset="1" stop-color="#16ea9e"/>
		</linearGradient>
		<clipPath clipPathUnits="userSpaceOnUse" id="cp4">
			<path d="m409.72 75.09q1.39 1.36 2.61 2.89c3.93 4.9 6.37 10.81 7.03 17.05 0.67 6.24-0.48 12.54-3.29 18.15-2.8 5.6-7.15 10.29-12.53 13.5-4.76 2.84-10.22 4.43-15.75 4.62q-0.99 4.05-2.86 7.81c-4.24 8.55-11.5 15.16-20.42 18.56-8.91 3.39-18.74 3.3-27.58-0.26q-0.38-0.15-0.75-0.31c-2.82 5.15-6.73 9.64-11.47 13.16-6 4.44-13.09 7.14-20.52 7.81-7.4 0.67-14.9-0.72-21.57-4q-5.68-2.79-10.13-6.97-4.44 4.18-10.12 6.97c-6.67 3.28-14.17 4.67-21.57 4-7.43-0.67-14.52-3.37-20.52-7.81-4.74-3.52-8.65-8.01-11.47-13.16q-0.37 0.16-0.75 0.31c-8.85 3.56-18.67 3.65-27.58 0.26-8.92-3.4-16.18-10.01-20.42-18.56q-1.87-3.76-2.86-7.81c-5.53-0.19-10.99-1.78-15.75-4.62-5.38-3.21-9.73-7.9-12.54-13.5-2.8-5.61-3.95-11.91-3.28-18.15 0.66-6.24 3.1-12.15 7.03-17.05q1.22-1.53 2.61-2.89-0.47-1.57-0.79-3.19c-1.17-5.9-0.69-12.06 1.37-17.72 2.06-5.68 5.64-10.68 10.34-14.48 4.7-3.79 10.35-6.22 16.33-7.04 5.06-0.69 10.26-0.19 15.09 1.44q1.45-2.08 3.19-3.94c5.8-6.22 13.58-10.19 22.03-11.22 7.3-0.89 14.69 0.49 21.15 3.9 4.26-5.65 10.13-9.91 16.89-12.21 9.8-3.34 22.71-1.72 31.62 4.54 8.92-6.26 21.83-7.88 31.63-4.54 6.76 2.3 12.63 6.56 16.89 12.21 6.46-3.41 13.85-4.79 21.15-3.9 8.45 1.03 16.23 5 22.03 11.22q1.74 1.86 3.19 3.94c4.83-1.63 10.03-2.13 15.09-1.44 5.98 0.82 11.63 3.25 16.33 7.04 4.7 3.8 8.28 8.8 10.34 14.48 2.06 5.66 2.54 11.82 1.37 17.72q-0.32 1.62-0.79 3.19z"/>
		</clipPath>
		<linearGradient id="g4" x2="1" gradientUnits="userSpaceOnUse" gradientTransform="matrix(161.376,-620.799,849.663,220.869,75.72,572.654)">
			<stop offset="0" stop-color="#6a00b8"/>
			<stop offset="1" stop-color="#16ea9e"/>
		</linearGradient>
		<clipPath clipPathUnits="userSpaceOnUse" id="cp5">
			<path d="m321.8 348.01c10.88-16.83 12.9-37.9 5.41-56.49-34.8 21.27-74.63 21.27-109.43 0-7.49 18.59-5.47 39.66 5.41 56.49 23.85 36.88 74.76 36.88 98.61 0z"/>
		</clipPath>
		<linearGradient id="g5" x2="1" gradientUnits="userSpaceOnUse" gradientTransform="matrix(161.376,-620.799,734.234,190.864,158.762,594.242)">
			<stop offset="0" stop-color="#6a00b8"/>
			<stop offset="1" stop-color="#16ea9e"/>
		</linearGradient>
		<clipPath clipPathUnits="userSpaceOnUse" id="cp6">
			<path d="m299.95 271.34c7.97-11.07 21.31-16.95 34.86-15.38 13.55 1.57 25.19 10.35 30.42 22.95 0.66-17.21-12.03-32.03-29.14-34.01-17.11-1.98-32.85 9.54-36.14 26.44z"/>
		</clipPath>
		<linearGradient id="g6" x2="1" gradientUnits="userSpaceOnUse" gradientTransform="matrix(161.376,-620.798,879.784,228.699,227.151,612.02)">
			<stop offset="0" stop-color="#6a00b8"/>
			<stop offset="1" stop-color="#16ea9e"/>
		</linearGradient>
		<clipPath clipPathUnits="userSpaceOnUse" id="cp7">
			<path d="m322.29 204.26c10.32-5.95 20.34-7.91 22.39-4.35 2.05 3.55-4.65 11.25-14.97 17.21-10.31 5.96-20.34 7.91-22.39 4.36-2.05-3.55 4.65-11.26 14.97-17.22z"/>
		</clipPath>
		<linearGradient id="g7" x2="1" gradientUnits="userSpaceOnUse" gradientTransform="matrix(161.376,-620.799,769.744,200.094,209.246,607.368)">
			<stop offset="0" stop-color="#6a00b8"/>
			<stop offset="1" stop-color="#16ea9e"/>
		</linearGradient>
		<clipPath clipPathUnits="userSpaceOnUse" id="cp8">
			<path d="m245.04 271.34c-7.97-11.07-21.31-16.95-34.86-15.38-13.55 1.57-25.19 10.35-30.41 22.95-0.67-17.21 12.03-32.03 29.13-34.01 17.11-1.98 32.85 9.54 36.14 26.44z"/>
		</clipPath>
		<linearGradient id="g8" x2="1" gradientUnits="userSpaceOnUse" gradientTransform="matrix(161.376,-620.798,879.784,228.699,113.95,582.594)">
			<stop offset="0" stop-color="#6a00b8"/>
			<stop offset="1" stop-color="#16ea9e"/>
		</linearGradient>
		<clipPath clipPathUnits="userSpaceOnUse" id="cp9">
			<path d="m222.7 204.26c-10.32-5.95-20.34-7.91-22.39-4.35-2.05 3.55 4.65 11.25 14.97 17.21 10.31 5.96 20.34 7.91 22.39 4.36 2.05-3.55-4.65-11.26-14.97-17.22z"/>
		</clipPath>
		<linearGradient id="g9" x2="1" gradientUnits="userSpaceOnUse" gradientTransform="matrix(161.377,-620.801,769.732,200.091,109.005,581.308)">
			<stop offset="0" stop-color="#6a00b8"/>
			<stop offset="1" stop-color="#16ea9e"/>
		</linearGradient>
	</defs>
	<style>
		.s0 { fill: url(#g1) } 
		.s1 { fill: #ffffff } 
		.s2 { fill: #e6e6e6 } 
		.s3 { fill: url(#g2) } 
		.s4 { fill: url(#g3) } 
		.s5 { fill: url(#g4) } 
		.s6 { fill: url(#g5) } 
		.s7 { fill: url(#g6) } 
		.s8 { fill: url(#g7) } 
		.s9 { fill: url(#g8) } 
		.s10 { fill: url(#g9) } 
	</style>
	<g id="_Artboards_">
	</g>
	<g id="Layer 1">
		<g id="&lt;Clip Group&gt;" clip-path="url(#cp1)">
			<path id="&lt;Path&gt;" class="s0" d="m4.8 609.2h535.4v-531.8h-535.4z"/>
		</g>
		<path id="&lt;Path&gt;" class="s1" d="m306.6 585.5c12.2 5.6 25.3 8.4 38.4 8.4 13.2 0 26.3-2.8 38.5-8.4-1.4-9-5.9-16.9-12.2-22.7-7-6.3-16.2-10.1-26.3-10.1-10 0-19.2 3.8-26.2 10.1-6.3 5.8-10.8 13.7-12.2 22.7z"/>
		<path id="&lt;Path&gt;" class="s1" d="m495.2 236.7c0.1-10-6.1-19.1-15.5-22.5-4.8-1.7-9.8-1.8-14.4-0.6-4 1.1-7.7 3.3-10.7 6.4 1.3 7.8 2.1 15.7 2.1 23.9 0 12.6-1.8 24.8-5 36.6 10 4.6 21 5.7 31.3 3.6 11.4-2.4 21.9-8.7 29.4-18.5 7.5-9.8 10.9-21.6 10.3-33.2-0.7-11.5-5.4-22.9-13.9-31.8-8.6-8.9-19.7-14-31.3-15.1-10.5-1-21.3 1.3-30.7 7.1q3.5 8.7 5.7 17.8c3.2-2.3 6.8-4 10.6-5 6.2-1.8 13.1-1.6 19.5 0.7 10.8 4 19.3 17.8 12.6 30.6z"/>
		<path id="&lt;Path&gt;" class="s1" d="m272.5 393.6c48.6 0 92.6-16.8 124.4-44 31.6-27.1 51.1-64.5 51.1-105.7 0-41.3-19.5-78.6-51.1-105.7-31.8-27.3-75.8-44.1-124.4-44.1-48.6 0-92.6 16.8-124.4 44.1-31.6 27.1-51.2 64.4-51.2 105.7 0 41.2 19.6 78.6 51.2 105.7 31.8 27.2 75.8 44 124.4 44z"/>
		<path id="&lt;Path&gt;" class="s2" d="m406 146.6q-4.4-4.4-9.1-8.4c-31.8-27.3-75.8-44.1-124.4-44.1-48.6 0-92.6 16.8-124.4 44.1q-4.7 4-9.1 8.4 2.3 0.9 4.7 1.6c6.7 12.2 17 22.2 30 27.2 9.8 3.7 19.3 4.8 28.4 3.8 10 9.8 23 16.5 37 17.7 10.9 1 21.9-1 31.7-5.8q0.8-0.5 1.7-0.9 0.9 0.4 1.7 0.9c9.8 4.8 20.8 6.8 31.7 5.8 14-1.2 27-7.9 37-17.7 9.1 1 18.6-0.1 28.3-3.8 13-5 23.4-15 30.1-27.2q2.4-0.7 4.7-1.6z"/>
		<path id="&lt;Path&gt;" class="s1" d="m238.4 585.5c-12.2 5.6-25.3 8.4-38.5 8.4-13.1 0-26.2-2.8-38.4-8.4 1.4-9 5.9-16.9 12.2-22.7 7-6.3 16.2-10.1 26.2-10.1 10.1 0 19.3 3.8 26.2 10.1 6.4 5.8 10.9 13.7 12.3 22.7z"/>
		<path id="&lt;Path&gt;" class="s1" d="m49.7 236.7c0-10 6.2-19.1 15.6-22.5 4.8-1.7 9.8-1.8 14.4-0.6 4 1.1 7.7 3.3 10.7 6.4-1.4 7.8-2.1 15.7-2.1 23.9 0 12.6 1.7 24.8 5 36.6-10 4.6-21 5.7-31.3 3.6-11.4-2.4-21.9-8.7-29.4-18.5-7.5-9.8-10.9-21.6-10.3-33.2 0.7-11.5 5.3-22.9 13.9-31.8 8.6-8.9 19.7-14 31.3-15.1 10.5-1 21.3 1.3 30.7 7.1q-3.5 8.7-5.8 17.8c-3.1-2.3-6.7-4-10.5-5-6.3-1.8-13.1-1.6-19.5 0.7-10.8 4-19.3 17.8-12.7 30.6z"/>
		<path id="&lt;Path&gt;" class="s1" d="m225.9 440c-14.4 1-28.7 3-43 5.9-1-12.6 0.4-25.6 4.4-38.1-9.7 10.3-11.6 26.6-11.2 38.6h-0.1c-4.5 16.5-15 25.3-15.1 25.3l-1.5 1.3 0.3 2c0.7 3.9 1.4 7.4 2 10.3l-7.9-6.7-9 15.4-4-16.8-12.1 3.1 4.2-6.1 0.5-1.3c11.5-51.4 32.1-85.9 38.8-96.2 28.8 16.2 63.3 25.6 100.3 25.6 37 0 71.4-9.4 100.3-25.6 6.7 10.3 27.3 44.8 38.8 96.2l0.5 1.3 4.2 6.1-12.1-3.1-4 16.8-9-15.4-7.9 6.7c0.6-2.9 1.3-6.4 2-10.3l0.3-2-1.6-1.3c0 0-10.5-8.8-15-25.3h-0.1c0.4-12-1.5-28.3-11.2-38.6 4 12.5 5.4 25.5 4.3 38.1-14.2-2.9-28.5-4.9-42.9-5.9-26.6-1.9-66.6-1.9-93.2 0z"/>
		<path id="&lt;Path&gt;" class="s2" d="m165.9 387.1c2.6-4.6 4.8-8.1 6.3-10.4 28.8 16.2 63.3 25.6 100.3 25.6 37 0 71.4-9.4 100.3-25.6 1.5 2.3 3.7 5.8 6.3 10.4-32.3 18.2-69.4 27.3-106.6 27.3-37.2 0-74.3-9.1-106.6-27.3z"/>
		<path id="&lt;Path&gt;" class="s1" d="m183.8 453.1c14-3 28.3-5 42.6-6 30.7-2.1 61.5-2.1 92.2 0 14.3 1 28.6 3 42.6 6q-0.2 1.4-0.5 2.8c-2.9 15.8-9.7 30.9-20 43.9 5.4-3.7 9.8-7.8 13.3-11.9l20.9 68.6c-8.1-6.9-18.5-11-29.9-11-11.8 0-22.8 4.5-31 12-4.4 4.1-8.1 9-10.7 14.6q-6-29.4-8.5-39.7-0.4-1.8-0.7-2.9c5.9-2.5 11.3-6.2 14.8-11.8-11.4 5.8-23.6 8.9-36.4 8.9-12.8 0-25-3.1-36.4-8.9 3.5 5.6 8.9 9.3 14.8 11.8q-0.3 1.1-0.8 2.9-2.4 10.3-8.4 39.7c-2.6-5.6-6.3-10.5-10.7-14.6-8.3-7.5-19.2-12-31.1-12-11.3 0-21.7 4.1-29.8 11l20.9-68.6c3.5 4.1 7.8 8.2 13.3 11.9-10.3-13-17.1-28.1-20-43.9q-0.3-1.4-0.5-2.8z"/>
		<g id="&lt;Clip Group&gt;" clip-path="url(#cp2)">
			<path id="&lt;Path&gt;" class="s3" d="m311.5 421.7h10.9v-10.9h-10.9z"/>
		</g>
		<g id="&lt;Clip Group&gt;" clip-path="url(#cp3)">
			<path id="&lt;Path&gt;" class="s4" d="m222.6 421.7h10.9v-10.9h-10.9z"/>
		</g>
		<path id="&lt;Path&gt;" class="s2" d="m396.9 316.8c-31.8 27.2-75.8 44.1-124.4 44.1-48.6 0-92.6-16.9-124.4-44.1-27.4-23.4-45.7-54.6-50.1-89.3q-1.1 8.1-1.1 16.4c0 41.2 19.6 78.6 51.2 105.7 31.8 27.2 75.8 44 124.4 44 48.6 0 92.6-16.8 124.4-44 31.6-27.1 51.1-64.5 51.1-105.7q0-8.3-1-16.4c-4.4 34.7-22.7 65.9-50.1 89.3z"/>
		<path id="&lt;Path&gt;" class="s2" d="m485.6 270.4c-4.1-12.2-0.2-25.6 9.6-33.7 0.1-10-6.1-19.1-15.5-22.5-4.8-1.7-9.8-1.8-14.4-0.6-4 1.1-7.7 3.3-10.7 6.4 1.3 7.8 2.1 15.7 2.1 23.9 0 12.6-1.8 24.8-5 36.6 10 4.6 21 5.7 31.3 3.6q4.6-1 8.9-2.7c-2.8-3.2-5-6.9-6.3-11z"/>
		<path id="&lt;Path&gt;" class="s2" d="m59.4 270.4c4.1-12.2 0.2-25.6-9.7-33.7 0-10 6.2-19.1 15.6-22.5 4.8-1.7 9.8-1.8 14.4-0.6 4 1.1 7.7 3.3 10.7 6.4-1.4 7.8-2.1 15.7-2.1 23.9 0 12.6 1.7 24.8 5 36.6-10 4.6-21 5.7-31.3 3.6q-4.6-1-8.9-2.7c2.8-3.2 5-6.9 6.3-11z"/>
		<path id="&lt;Path&gt;" class="s2" d="m357.7 407.8c9.7 10.3 11.6 26.6 11.2 38.6h0.1c4.5 16.5 15 25.3 15 25.3l1.6 1.3-0.3 2c-0.7 3.9-1.4 7.4-2 10.3l7.9-6.7 9 15.4 4-16.8c-25-21.8-26.2-52.7-46.5-69.4z"/>
		<path id="&lt;Path&gt;" class="s2" d="m187.3 407.8c-9.7 10.3-11.6 26.6-11.2 38.6h-0.1c-4.5 16.5-15 25.3-15.1 25.3l-1.5 1.3 0.3 2c0.7 3.9 1.4 7.4 2 10.3l-7.9-6.7-9 15.4-4-16.8c24.9-21.8 26.2-52.7 46.5-69.4z"/>
		<path id="&lt;Path&gt;" class="s2" d="m216.2 431.8c17.5-2.5 38.7-3.2 56.3-3.2 17.6 0 38.8 0.7 56.3 3.2 37.5 5.3 28.9-24 28.9-24 4 12.5 5.4 25.5 4.3 38.1-14.2-2.9-28.5-4.9-42.9-5.9-13.3-1-30-1.4-46.6-1.4-16.6 0-33.3 0.4-46.6 1.4-14.4 1-28.7 3-43 5.9-1-12.6 0.4-25.6 4.4-38.1 0 0-8.6 29.3 28.9 24z"/>
		<g id="&lt;Clip Group&gt;" clip-path="url(#cp4)">
			<path id="&lt;Path&gt;" class="s5" d="m125 178.7h295v-171.4h-295z"/>
		</g>
		<path id="&lt;Path&gt;" class="s1" d="m272.5 133.5c0.2 8.8 9.6 21.5 17.5 25.4 4 2 8.4 2.8 12.7 2.4 13.6-1.2 26.8-17.9 24.6-31.5 2.3 3.3 12.7 19.2 31.2 12.1 11.2-4.3 17.4-20.7 14.3-31.2 3.7 3 13.3 6.7 22.1 1.5 2.7-1.6 4.8-3.9 6.1-6.6 1.3-2.6 1.9-5.7 1.6-8.8-0.3-3.1-1.6-5.9-3.4-8.3-1.9-2.3-4.4-4.1-7.4-5.1l-6.2-2.1 4.4-4.9c2.1-2.2 3.4-4.9 3.9-7.7 0.6-2.9 0.4-5.9-0.6-8.8-1-2.8-2.8-5.2-5.1-7.1-2.3-1.8-5-3-8-3.4-6-0.8-18.2 3.8-20.8 9 0.5-2.9-4-20.8-19.3-22.7-19.3-2.4-24 12.7-24.8 12.5 2.8-17.4-28.3-35.2-42.8-8.2-14.5-27-45.6-9.2-42.8 8.2-0.8 0.2-5.5-14.9-24.9-12.5-15.2 1.9-19.7 19.8-19.2 22.7-2.6-5.2-14.9-9.8-20.8-9-3 0.4-5.8 1.6-8 3.4-2.3 1.9-4.1 4.3-5.1 7.1-1 2.9-1.2 5.9-0.7 8.8 0.6 2.8 1.9 5.5 4 7.7l4.4 4.9-6.3 2.1c-2.9 1-5.4 2.8-7.3 5.1-1.9 2.4-3.1 5.2-3.4 8.3-0.3 3.1 0.3 6.2 1.6 8.8 1.3 2.7 3.4 5 6.1 6.6 8.8 5.2 18.3 1.5 22.1-1.5-3.1 10.5 3 26.9 14.3 31.2 18.5 7.1 28.9-8.8 31.2-12.1-2.3 13.6 11 30.3 24.6 31.5 4.3 0.4 8.7-0.4 12.7-2.4 7.9-3.9 17.3-16.6 17.5-25.4z"/>
		<path id="&lt;Path&gt;" class="s2" d="m308.9 517.7c-3.5 5.6-8.9 9.3-14.8 11.8q0.3 1.1 0.7 2.9 2.5 10.3 8.5 39.7c2.6-5.6 6.3-10.5 10.7-14.6 8.2-7.5 19.2-12 31-12 11.4 0 21.8 4.1 29.9 11-16.7-32.8-65.1-9.6-66-38.8z"/>
		<path id="&lt;Path&gt;" class="s2" d="m361.2 453.1c-14-3-28.3-5-42.6-6q-10.3-0.7-20.5-1.1c0 0 64.5 4.9 42.6 53.8 10.3-13 17.1-28.1 20-43.9q0.3-1.4 0.5-2.8z"/>
		<path id="&lt;Path&gt;" class="s2" d="m236.1 517.7c3.5 5.6 8.9 9.3 14.8 11.8q-0.3 1.1-0.8 2.9-2.4 10.3-8.4 39.7c-2.6-5.6-6.3-10.5-10.7-14.6-8.3-7.5-19.2-12-31.1-12-11.3 0-21.7 4.1-29.8 11 16.7-32.8 65.1-9.6 66-38.8z"/>
		<path id="&lt;Path&gt;" class="s2" d="m183.8 453.1c14-3 28.3-5 42.6-6q10.3-0.7 20.5-1.1c0 0-64.5 4.9-42.6 53.8-10.3-13-17.1-28.1-20-43.9q-0.3-1.4-0.5-2.8z"/>
		<path id="&lt;Path&gt;" class="s2" d="m383.5 585.5c-24.5 5.5-50.2-1.5-68.5-18.7-4.3 5.3-7.3 11.6-8.4 18.7 12.2 5.6 25.3 8.4 38.4 8.4 13.2 0 26.3-2.8 38.5-8.4z"/>
		<path id="&lt;Path&gt;" class="s2" d="m161.5 585.5c24.5 5.5 50.1-1.5 68.5-18.7 4.3 5.3 7.3 11.6 8.4 18.7-12.2 5.6-25.3 8.4-38.5 8.4-13.1 0-26.2-2.8-38.4-8.4z"/>
		<path id="&lt;Path&gt;" class="s2" d="m255 134.8c-4 2-8.4 2.8-12.7 2.4-13.6-1.2-26.9-17.9-24.6-31.5-2.3 3.3-12.7 19.2-31.2 12.1q-2.3-0.9-4.3-2.4c-4.4-3.2-7.6-8.4-9.4-13.9-1.6-5.2-1.9-10.6-0.6-14.9-3.8 3-13.3 6.7-22.1 1.5q-1.2-0.7-2.3-1.6-1.1 0.9-2 2c-1.9 2.4-3.1 5.2-3.4 8.3-0.3 3.1 0.3 6.2 1.6 8.8 1.3 2.7 3.4 5 6.1 6.6q1.3 0.8 2.7 1.3c8 3.2 16-0.1 19.4-2.8-1 3.1-1.1 6.8-0.4 10.5 1.4 8.7 6.8 17.7 14.7 20.7 18.5 7.1 28.9-8.8 31.2-12.1-2.3 13.6 11 30.3 24.6 31.5 4.3 0.4 8.7-0.4 12.7-2.4 7.9-3.9 17.3-16.6 17.5-25.4 0.2 8.8 9.6 21.5 17.5 25.4 4 2 8.4 2.8 12.7 2.4 13.6-1.2 26.8-17.9 24.6-31.5 2.3 3.3 12.7 19.2 31.2 12.1 7.9-3 13.3-12 14.7-20.7 0.7-3.7 0.6-7.4-0.4-10.5 3.4 2.7 11.4 6 19.4 2.8q1.3-0.5 2.7-1.3c2.7-1.6 4.8-3.9 6.1-6.6 1.3-2.6 1.9-5.7 1.6-8.8-0.3-3.1-1.6-5.9-3.4-8.3q-0.9-1.1-2-2-1.1 0.9-2.3 1.6c-8.8 5.2-18.4 1.5-22.1-1.5 1.3 4.3 1 9.7-0.6 14.9-1.8 5.5-5 10.7-9.4 13.9q-2 1.5-4.3 2.4c-18.5 7.1-28.9-8.8-31.2-12.1 2.2 13.6-11 30.3-24.6 31.5-4.3 0.4-8.7-0.4-12.7-2.4-7.9-3.9-17.3-16.6-17.5-25.4-0.2 8.8-9.6 21.5-17.5 25.4z"/>
		<g id="&lt;Clip Group&gt;" clip-path="url(#cp5)">
			<path id="&lt;Path&gt;" class="s6" d="m210.3 384.9h124.4v-93.4h-124.4z"/>
		</g>
		<path id="&lt;Path&gt;" class="s1" d="m233.3 347.3c20.4 26.3 58 26.3 78.4 0-8.9-10.2-23.1-16.8-39.2-16.8-16.1 0-30.3 6.6-39.2 16.8z"/>
		<g id="&lt;Clip Group&gt;" clip-path="url(#cp6)">
			<path id="&lt;Path&gt;" class="s7" d="m300 278.9h65.9v-36h-65.9z"/>
		</g>
		<g id="&lt;Clip Group&gt;" clip-path="url(#cp7)">
			<path id="&lt;Path&gt;" class="s8" d="m305.3 225h41.4v-28.6h-41.4z"/>
		</g>
		<g id="&lt;Clip Group&gt;" clip-path="url(#cp8)">
			<path id="&lt;Path&gt;" class="s9" d="m179.1 278.9h65.9v-36h-65.9z"/>
		</g>
		<g id="&lt;Clip Group&gt;" clip-path="url(#cp9)">
			<path id="&lt;Path&gt;" class="s10" d="m198.3 225h41.4v-28.6h-41.4z"/>
		</g>
	</g>
</svg>